<?xml version="1.0" encoding="utf-8"?>
<!-- Generator: Adobe Illustrator 16.0.0, SVG Export Plug-In . SVG Version: 6.00 Build 0)  -->
<!DOCTYPE svg PUBLIC "-//W3C//DTD SVG 1.1//EN" "http://www.w3.org/Graphics/SVG/1.1/DTD/svg11.dtd">
<svg version="1.1" id="Calque_1" xmlns="http://www.w3.org/2000/svg" xmlns:xlink="http://www.w3.org/1999/xlink" x="0px" y="0px"
	 width="350px" height="250px" viewBox="0 0 432 432" enable-background="new 0 0 432 432" xml:space="preserve">
<g>
	<path fill="#C57B3A" d="M236.754,124.326c-0.063,1.294-0.146,2.612-0.19,3.931c-0.337,10.181-0.454,20.365-0.246,30.549
		c0.118,5.773,0.352,11.542,0.643,17.31c0.181,3.585,0.226,7.175,0.237,10.766c0.014,4.019,0.105,8.038,0.704,12.024
		c0.502,3.346,1.516,6.522,3.164,9.49c3.389,6.104,9.731,6.593,14.097,4.646c1.848-0.824,3.465-1.982,4.784-3.496
		c4.208-4.825,6.452-10.44,6.526-16.863c0.028-2.392-0.679-4.617-1.949-6.65c-1.051-1.683-2.501-2.862-4.408-3.469
		c-1.755-0.558-3.53-0.989-5.387-0.96c-0.587,0.009-1.167,0.009-1.5,0.662c-0.206,0.404-0.615,0.493-1.01,0.289
		c-0.391-0.202-0.501-0.584-0.409-1.003c0.173-0.785,0.642-1.313,1.406-1.583c0.865-0.306,1.762-0.322,2.659-0.289
		c1.564,0.058,3.09,0.355,4.61,0.73c3.219,0.794,5.439,2.784,6.911,5.673c1.439,2.827,1.88,5.865,1.606,8.986
		c-0.401,4.581-1.796,8.858-4.309,12.729c-2.729,4.207-6.53,7.03-11.408,8.189c-5.393,1.282-10.185-0.167-14.379-3.706
		c-1.653-1.395-3.021-3.054-4.186-4.866c-5.317-8.273-8.99-17.185-10.346-26.979c-0.428-3.094-0.6-6.212-0.715-9.33
		c-0.168-4.562-0.282-9.126-0.423-13.689c-0.012-0.383-0.046-0.766-0.222-1.181c-0.126,0.351-0.262,0.698-0.376,1.052
		c-4.425,13.811-8.951,27.587-13.994,41.188c-1.427,3.85-3.15,7.557-5.381,11.015c-0.783,1.214-1.619,2.39-2.59,3.465
		c-0.603,0.668-1.248,1.29-1.982,1.813c-2.141,1.524-4.38,1.704-6.72,0.493c-1.482-0.767-2.681-1.881-3.734-3.148
		c-3.517-4.226-5.236-9.063-4.973-14.589c0.315-6.609,1.443-13.089,2.995-19.506c0.09-0.371,0.233-0.732,0.192-1.199
		c-0.836,0.234-1.513,0.685-2.194,1.104c-2.895,1.787-5.549,3.905-8.214,6.008c-1.562,1.232-3.065,2.539-4.707,3.668
		c-1.424,0.979-2.928,1.77-4.664,2.069c-1.614,0.278-3.102-0.016-4.506-0.814c-1.064-0.605-1.953-1.418-2.737-2.353
		c-2.432-2.897-3.929-6.254-4.86-9.889c-0.085-0.331-0.074-0.695-0.352-0.971c-0.384,0.263-0.476,0.704-0.659,1.079
		c-3.249,6.66-6.485,13.325-9.734,19.984c-1.043,2.139-2.123,4.259-3.359,6.294c-1.898,3.128-4.164,5.941-7.111,8.154
		c-1.546,1.161-3.229,2.029-5.161,2.361c-2.748,0.473-5.268-0.173-7.631-1.547c-1.947-1.132-3.538-2.682-4.968-4.403
		c-2.304-2.774-4.15-5.852-5.892-8.993c-3.446-6.215-5.472-12.885-6.457-19.911c-0.945-6.738-1.367-13.504-1.316-20.299
		c0.071-9.544,0.953-19.004,3.221-28.299c1.058-4.335,2.447-8.55,4.863-12.352c1.493-2.351,3.207-4.515,5.441-6.224
		c3.784-2.894,7.806-3.323,12.051-1.133c3.836,1.979,7.104,4.702,9.777,8.06c5.206,6.54,9.031,13.823,11.293,21.893
		c0.4,1.428,0.674,2.886,0.599,4.387c-0.041,0.837-0.247,1.623-0.727,2.312c-0.85,1.221-1.991,1.325-3.062,0.293
		c-0.776-0.75-1.229-1.707-1.612-2.69c-0.792-2.034-1.561-4.078-2.32-6.124c-1.14-3.07-2.209-6.167-3.548-9.159
		c-2.015-4.502-4.618-8.584-8.444-11.79c-1.171-0.981-2.418-1.844-3.822-2.465c-0.428-0.189-0.866-0.338-1.324-0.452
		c-1.129-0.28-1.989,0.11-2.658,1.006c-0.494,0.664-0.8,1.423-1.081,2.196c-0.843,2.318-1.278,4.74-1.824,7.133
		c-1.526,6.699-2.583,13.478-3.229,20.315c-0.661,7.001-0.714,14.019-0.398,21.046c0.29,6.49,1.395,12.861,2.559,19.23
		c0.693,3.796,1.235,7.622,2.201,11.363c0.704,2.727,1.645,5.367,3.048,7.825c0.565,0.989,1.235,1.896,2.075,2.67
		c1.699,1.565,3.427,1.798,5.477,0.749c1.018-0.521,1.889-1.239,2.719-2.013c1.955-1.824,3.561-3.933,4.94-6.209
		c2.913-4.805,5.552-9.765,8.195-14.719c2.368-4.438,4.643-8.927,6.975-13.385c0.336-0.641,0.474-1.284,0.484-2.009
		c0.111-7.436,2.451-14.157,6.625-20.262c1.263-1.846,2.813-3.446,4.654-4.736c2.586-1.812,5.414-2.703,8.604-2.286
		c4.131,0.541,7.223,4.047,7.114,8.108c-0.023,0.873-0.229,1.703-0.596,2.485c-0.571,1.224-1.498,1.32-2.322,0.266
		c-1.577-2.018-2.371-2.086-4.265-0.342c-1.512,1.392-2.632,3.078-3.589,4.879c-1.645,3.096-2.598,6.425-3.249,9.848
		c-0.671,3.523-1.437,7.031-1.809,10.604c-0.195,1.867-0.302,3.74,0.119,5.589c0.53,2.328,1.63,2.9,3.838,2.027
		c1.504-0.595,2.812-1.523,4.058-2.529c2.916-2.352,5.814-4.725,8.709-7.102c1.477-1.213,2.943-2.44,4.391-3.689
		c0.921-0.794,1.947-1.413,2.971-2.059c2.034-1.282,5.608-0.951,7.469,1.753c1.029,1.497,1.503,3.157,1.606,4.939
		c0.129,2.229-0.082,4.443-0.354,6.652c-0.678,5.494-1.552,10.963-1.614,16.523c-0.024,2.178-0.348,4.353-0.53,6.53
		c-0.108,1.295-0.018,2.577,0.368,3.82c0.284,0.917,0.648,1.044,1.464,0.564c0.613-0.361,1.097-0.871,1.539-1.422
		c0.858-1.07,1.542-2.251,2.167-3.467c2.233-4.344,3.969-8.899,5.681-13.463c5.546-14.785,10.896-29.639,15.701-44.685
		c0.42-1.315,0.637-2.622,0.654-4.008c0.078-6.477,0.267-12.95,0.581-19.42c0.082-1.682,0.421-1.743-1.554-1.512
		c-6.829,0.8-13.101,3.082-18.696,7.128c-1.681,1.215-3.281,2.524-4.588,4.149c-0.857,1.067-1.701,2.151-1.504,3.672
		c0.055,0.415-0.184,0.743-0.584,0.925c-0.442,0.2-0.848,0.111-1.198-0.187c-0.573-0.487-0.784-1.15-0.809-1.876
		c-0.036-1.086,0.318-2.07,0.837-3.004c0.884-1.589,2.093-2.91,3.427-4.122c2.973-2.697,6.355-4.777,9.952-6.515
		c4.277-2.067,8.76-3.478,13.491-4.045c0.31-0.037,0.616-0.118,0.926-0.135c0.441-0.023,0.596-0.24,0.615-0.667
		c0.047-1.013,0.126-2.024,0.201-3.035c0.3-4.005,0.557-8.017,1.427-11.952c0.433-1.958,1.176-3.797,2.259-5.49
		c0.529-0.828,1.148-1.579,2.01-2.09c1.267-0.752,2.47-0.612,3.523,0.401c0.571,0.548,0.981,1.209,1.34,1.906
		c1.104,2.147,1.654,4.446,1.871,6.837c0.393,4.325,0.253,8.657,0.162,12.987c-0.038,1.796-0.269,1.513,1.401,1.859
		c4.679,0.969,9.138,2.611,13.525,4.461c4.598,1.939,9.102,4.093,13.729,5.963c7.92,3.201,16.095,5.443,24.579,6.49
		c5.721,0.707,11.441,0.787,17.123-0.396c4.143-0.862,8.005-2.359,11.24-5.182c2.472-2.156,4.499-4.662,5.709-7.746
		c1.029-2.624,1.235-5.304,0.299-8.01c-0.453-1.308-1.155-2.465-2.149-3.444c-0.5-0.492-0.959-1.026-1.428-1.548
		c-0.236-0.264-0.417-0.568-0.517-0.909c-0.123-0.42,0.003-0.771,0.353-1.031c0.366-0.273,0.77-0.25,1.075,0.045
		c1.872,1.81,3.947,3.452,4.879,6.033c0.96,2.663,0.97,5.36,0.278,8.061c-1.041,4.068-3.417,7.318-6.442,10.128
		c-3.55,3.297-7.832,5.21-12.462,6.4c-5.844,1.502-11.79,1.734-17.777,1.273c-11.618-0.893-22.533-4.346-33.094-9.096
		c-4.728-2.127-9.448-4.276-14.396-5.86c-1.634-0.523-3.281-0.999-4.952-1.391C237.525,124.333,237.193,124.215,236.754,124.326z"/>
	<g>
		<path fill="#E86666" d="M213.971,247.475c0.266-2.455,0.466-4.705,0.761-6.942c0.633-4.8,1.445-9.564,3.276-14.085
			c1.157-2.858,2.777-5.41,5.143-7.437c1.582-1.357,3.357-2.26,5.499-2.278c2.114-0.018,3.75,0.911,5.021,2.545
			c1.321,1.7,2.023,3.686,2.533,5.739c0.575,2.315,0.851,4.679,0.977,7.059c0.383,7.247-0.763,14.309-2.639,21.273
			c-1.735,6.444-3.819,12.771-6.508,18.888c-0.243,0.554-0.327,1.074-0.243,1.688c0.53,3.87,1.481,7.651,2.354,11.45
			c0.804,3.497,1.6,6.994,2.862,10.363c0.479,1.281,1.016,2.537,1.834,3.647c1.042,1.411,2.034,1.594,3.513,0.646
			c0.797-0.511,1.446-1.185,2.046-1.91c1.399-1.695,2.491-3.586,3.473-5.541c2.51-4.997,4.422-10.235,6.173-15.532
			c2.755-8.332,5.146-16.774,7.602-25.197c0.263-0.9,0.133-1.783,0.079-2.67c-0.277-4.602-0.232-9.202-0.008-13.804
			c0.16-3.274,0.369-6.542,0.796-9.793c0.243-1.856,0.524-3.706,1.136-5.487c0.318-0.93,0.739-1.803,1.371-2.564
			c2.232-2.689,6.12-2.541,8.135,0.317c1.075,1.525,1.412,3.288,1.501,5.094c0.157,3.199,0.036,6.399-0.071,9.597
			c-0.19,5.658-0.301,11.317,0.166,16.963c0.25,3.029,0.717,6.04,1.04,9.063c0.311,2.913,0.731,5.804,1.495,8.635
			c0.478,1.773,1.074,3.507,2.033,5.089c2.26,3.726,5.257,4.499,9.026,2.332c1.641-0.943,3.029-2.194,4.304-3.579
			c2.308-2.511,4.223-5.31,5.997-8.209c4.38-7.154,7.69-14.8,10.467-22.694c1.63-4.635,3.138-9.309,4.663-13.978
			c0.182-0.554,0.386-1.109,0.658-1.623c0.949-1.789,2.772-2.341,4.578-1.407c0.927,0.479,1.607,1.23,2.179,2.08
			c0.722,1.072,1.27,2.236,1.794,3.414c1.839,4.126,2.893,8.474,3.686,12.899c1.391,7.764,2.218,15.593,2.774,23.454
			c0.016,0.221-0.054,0.467,0.141,0.647c0.221,0.076,0.382-0.06,0.548-0.149c6.602-3.566,12.973-7.475,18.726-12.337
			c9.838-8.316,16.063-18.795,18.624-31.387c2.02-9.927,0.67-19.485-3.825-28.569c-2.956-5.974-7.512-10.487-13.085-14.032
			c-7.664-4.873-16.044-7.155-25.113-6.827c-3.207,0.116-6.363,0.617-9.375,1.81c-2.463,0.976-4.648,2.376-6.505,4.271
			c-2.33,2.376-3.742,5.231-3.876,8.548c-0.163,4.037,1.079,7.557,4.61,9.917c2.212,1.478,4.487,1.187,6.333-0.748
			c0.699-0.733,1.328-1.534,1.998-2.295c0.258-0.292,0.514-0.596,0.819-0.83c0.476-0.364,1.009-0.423,1.519-0.053
			c0.501,0.364,0.635,0.878,0.472,1.455c-0.073,0.258-0.212,0.502-0.353,0.734c-0.404,0.667-0.893,1.292-1.227,1.992
			c-1.458,3.051-6.624,4.65-9.84,3.193c-2.011-0.911-3.67-2.183-4.955-3.971c-4.151-5.78-4.016-13.383,0.437-18.932
			c3.434-4.281,7.977-6.83,13.3-7.92c7.804-1.599,15.472-0.82,22.916,1.874c8.838,3.199,16.229,8.445,21.718,16.164
			c3.703,5.208,5.872,11.074,6.991,17.33c2.044,11.421-0.156,22.172-5.252,32.447c-4.283,8.639-10.581,15.567-18.152,21.422
			c-5.018,3.88-10.442,7.102-16.075,9.992c-0.276,0.142-0.545,0.306-0.832,0.425c-0.335,0.14-0.474,0.369-0.456,0.725
			c0.018,0.351,0.01,0.703,0.017,1.053c0.102,5.035,0.079,10.068-0.241,15.095c-0.738,11.584-2.696,22.923-7.031,33.751
			c-4.014,10.027-9.811,18.874-17.795,26.213c-3.975,3.652-8.418,6.578-13.556,8.344c-3.051,1.049-6.178,1.595-9.428,1.33
			c-4.092-0.335-7.492-2.018-10.167-5.125c-2.617-3.039-4.063-6.621-4.745-10.536c-0.916-5.259-0.259-10.425,1.062-15.522
			c2.859-11.043,8.42-20.587,16.205-28.876c6.684-7.117,14.453-12.829,22.877-17.696c2.973-1.717,5.977-3.377,9.036-4.93
			c0.702-0.356,0.925-0.769,0.9-1.537c-0.156-4.992-0.407-9.978-0.829-14.955c-0.349-4.119-0.684-8.24-1.011-12.361
			c-0.256-3.221-0.519-6.443-0.519-9.812c-0.494,0.33-0.533,0.775-0.672,1.144c-2.905,7.748-6.158,15.344-9.851,22.751
			c-1.776,3.563-3.628,7.084-5.864,10.387c-2.048,3.022-4.388,5.778-7.352,7.958c-0.977,0.718-2.005,1.346-3.088,1.893
			c-4.322,2.18-8.502,1.875-12.544-0.719c-2.7-1.732-4.868-4.016-6.704-6.622c-2.545-3.614-4.267-7.604-5.36-11.875
			c-0.097-0.375-0.118-0.772-0.366-1.109c-0.293,0.299-0.313,0.697-0.416,1.061c-2.362,8.286-4.58,16.615-7.448,24.749
			c-1.257,3.566-2.5,7.139-4,10.613c-0.977,2.262-2.104,4.442-3.618,6.402c-1.01,1.307-2.159,2.467-3.572,3.339
			c-2.475,1.527-5.084,1.856-7.847,0.873c-2.06-0.733-3.816-1.94-5.405-3.409c-3.171-2.929-5.508-6.455-7.348-10.332
			c-0.15-0.316-0.297-0.634-0.457-0.946c-0.032-0.062-0.115-0.096-0.182-0.148c-0.384,0.296-0.563,0.742-0.811,1.133
			c-2.552,4.025-5.22,7.963-8.521,11.429c-2.354,2.471-4.904,4.7-7.93,6.322c-4.221,2.262-8.65,3.042-13.338,1.739
			c-3.568-0.991-6.309-3.193-8.538-6.054c-2.774-3.562-4.517-7.634-5.694-11.965c-0.107-0.396-0.227-0.789-0.354-1.228
			c-0.429,0.296-0.446,0.717-0.574,1.065c-2.585,7.024-5.126,14.064-7.752,21.073c-1.505,4.019-3.232,7.946-5.358,11.686
			c-1.063,1.868-2.218,3.674-3.564,5.352c-0.883,1.099-1.845,2.123-3.03,2.905c-2.137,1.412-4.249,1.337-6.295-0.209
			c-0.978-0.739-1.736-1.675-2.413-2.687c-2.089-3.121-3.412-6.554-4.253-10.199c-1.419-6.149-1.646-12.356-0.924-18.605
			c0.994-8.61,2.876-17.06,4.674-25.524c0.599-2.822,1.21-5.641,1.816-8.461c0.039-0.184,0.142-0.366-0.009-0.606
			c-0.571,0.005-1.099,0.259-1.632,0.45c-3.138,1.124-6.033,2.729-8.86,4.47c-3.088,1.902-6.138,3.868-9.317,5.617
			c-1.537,0.846-3.084,1.673-4.74,2.272c-3.301,1.194-5.803,0.539-8.053-2.144c-1.289-1.537-2.225-3.296-3.063-5.104
			c-2.317-5.002-3.494-10.252-3.231-15.778c0.324-6.823,2.345-13.092,6.316-18.687c1.179-1.662,2.557-3.146,4.16-4.417
			c5.129-4.065,11.163-3.533,15.718-0.193c3.78,2.773,5.821,6.624,6.537,11.221c0.51,3.274,0.016,6.452-0.878,9.592
			c-0.225,0.788-0.681,1.15-1.298,1.111c-0.658-0.042-1.035-0.497-1.115-1.4c-0.246-2.78-0.845-5.47-2.063-7.996
			c-0.828-1.714-1.937-3.2-3.572-4.24c-0.73-0.465-1.507-0.812-2.352-1.011c-1.322-0.311-2.465-0.032-3.415,0.976
			c-0.784,0.831-1.396,1.777-1.929,2.779c-1.692,3.184-2.894,6.562-3.911,10.008c-1.128,3.824-1.938,7.713-2.282,11.692
			c-0.227,2.623-0.127,5.222,0.576,7.775c0.155,0.565,0.354,1.116,0.643,1.629c0.511,0.909,1.004,1.152,2.021,0.983
			c0.774-0.128,1.505-0.401,2.22-0.717c1.537-0.679,3.007-1.486,4.448-2.343c6.271-3.728,12.453-7.596,18.531-11.63
			c0.909-0.603,1.774-1.273,2.641-1.938c2.869-2.202,6.506-1.698,8.646,1.227c1.069,1.462,1.538,3.133,1.632,4.926
			c0.126,2.434-0.234,4.823-0.622,7.212c-1.067,6.583-2.547,13.085-3.749,19.642c-0.774,4.22-1.339,8.472-1.979,12.713
			c-0.68,4.512-1.372,9.022-1.997,13.542c-0.358,2.587-0.67,5.185-0.561,7.81c0.044,1.064,0.24,2.096,0.701,3.057
			c0.437,0.913,0.904,1.026,1.775,0.484c0.672-0.419,1.19-1.005,1.679-1.616c1.026-1.286,1.852-2.7,2.628-4.145
			c2.328-4.339,4.113-8.92,6.004-13.454c3.452-8.278,6.699-16.636,9.897-25.014c0.357-0.936,0.489-1.846,0.432-2.844
			c-0.591-10.313,1.707-19.981,6.653-29.017c2.14-3.908,4.964-7.265,8.57-9.942c7.91-5.87,17.806-4.555,23.646-0.25
			C211.977,245.549,212.89,246.446,213.971,247.475z M312.773,276.107c-0.439-0.187-0.685,0.075-0.944,0.211
			c-4.217,2.203-8.386,4.493-12.449,6.971c-7.755,4.729-14.731,10.368-20.489,17.439c-5.532,6.794-9.78,14.275-12.056,22.788
			c-1.33,4.979-1.995,10.018-1.073,15.162c0.502,2.8,1.429,5.43,3.174,7.713c1.908,2.499,4.407,3.923,7.59,4
			c1.736,0.042,3.411-0.33,5.027-0.948c2.922-1.118,5.445-2.856,7.691-5.014c2.572-2.471,4.759-5.265,6.76-8.207
			c4.303-6.33,7.468-13.225,10.111-20.381c2.959-8.011,4.942-16.244,5.844-24.744c0.428-4.039,0.641-8.086,0.809-12.139
			C312.807,277.999,312.773,277.035,312.773,276.107z M184.099,288.694c-0.051,2.072,0.001,4.14,0.198,6.2
			c0.253,2.649,0.712,5.254,1.828,7.703c1.898,4.167,5.613,6.112,10.11,5.301c2.08-0.375,3.909-1.309,5.628-2.483
			c2.171-1.483,4.066-3.281,5.814-5.237c3.498-3.916,6.379-8.274,9.129-12.728c0.323-0.524,0.295-0.991,0.142-1.549
			c-1.409-5.129-2.188-10.369-2.71-15.653c-0.404-4.082-0.536-8.175-0.55-12.272c-0.002-0.682-0.239-1.187-0.679-1.669
			c-1.685-1.852-3.677-3.264-6.019-4.138c-3.123-1.165-6.194-1.005-9.168,0.542c-2.519,1.309-4.457,3.259-6.087,5.542
			c-2.105,2.95-3.584,6.205-4.648,9.657C185,274.682,184.517,281.684,184.099,288.694z M227.057,266.314
			c0.393-0.245,0.419-0.661,0.547-1.001c2.876-7.606,5.192-15.352,5.957-23.495c0.354-3.778,0.49-7.549-0.122-11.313
			c-0.321-1.971-0.818-3.894-1.855-5.629c-0.306-0.512-0.589-1.076-1.204-1.328C227.964,227.961,225.637,258.075,227.057,266.314z"
			/>
		<path fill="#E86666" d="M79.098,221.062c-0.102,11.022-0.339,19.094-0.701,27.162c-0.506,11.27-1.724,22.468-3.5,33.605
			c-0.909,5.695-2.073,11.348-2.868,17.062c-0.092,0.66-0.153,1.317-0.146,1.981c0.016,1.195,0.179,1.349,1.35,1.377
			c1.613,0.038,3.189-0.255,4.748-0.602c5.174-1.148,10.331-2.374,15.512-3.492c3.58-0.773,7.172-1.493,10.704-2.471
			c0.71-0.197,1.397-0.38,1.898-1.039c0.393-0.516,1.141-0.544,1.714-0.248c0.654,0.339,1.105,1.205,0.996,1.974
			c-0.133,0.922-0.659,1.562-1.485,1.968c-0.81,0.398-1.67,0.649-2.539,0.869c-5.668,1.437-11.378,2.677-17.132,3.723
			c-4.026,0.732-8.047,1.497-12.076,2.209c-1.226,0.216-2.465,0.332-3.725,0.179c-1.574-0.191-2.666-1.013-3.375-2.389
			c-0.377-0.731-0.603-1.519-0.8-2.316c-0.695-2.808-1.026-5.675-1.38-8.538c-1.431-11.605-1.696-23.258-1.367-34.931
			c0.125-4.444,0.403-8.884,0.623-13.325c0.744-15.051,0.604-30.109,0.396-45.168c-0.063-4.602-0.047-9.208,0.35-13.8
			c0.27-3.117,0.817-6.181,1.842-9.147c0.127-0.368,0.259-0.738,0.435-1.083c0.998-1.955,2.8-2.183,4.222-0.531
			c0.277,0.323,0.518,0.686,0.739,1.051c1.657,2.735,2.617,5.731,3.273,8.839c0.606,2.868,0.909,5.779,1.127,8.692
			C78.714,203.104,79.084,213.55,79.098,221.062z"/>
	</g>
	<g>
		<path fill="#E86666" d="M272.596,93.428c1.879-0.521,3.596-1.033,5.37-1.303c6.574-0.999,12.642,0.254,18.133,4.074
			c0.841,0.585,0.829,0.589,1.565-0.151c1.659-1.666,3.705-2.708,5.854-3.565c1.084-0.433,2.197-0.803,3.316-1.138
			c2.176-0.651,4.236-1.574,6.27-2.565c0.596-0.29,1.185-0.599,1.629-1.116c0.444-0.517,1-0.771,1.668-0.54
			c0.705,0.243,1.012,0.831,1.105,1.526c0.12,0.894,0.12,1.801-0.016,2.686c-0.705,4.565-1.809,9.013-3.903,13.172
			c-1.478,2.935-3.804,5.002-6.614,6.571c-0.421,0.235-0.46,0.402-0.335,0.8c0.459,1.45,0.806,2.93,1.128,4.417
			c0.174,0.806,0.206,0.814,0.999,0.549c2.956-0.988,5.898-2.02,8.937-2.74c0.379-0.09,0.757-0.201,1.142-0.251
			c0.329-0.043,0.626,0.083,0.756,0.419c0.143,0.369,0.068,0.728-0.274,0.924c-0.333,0.19-0.711,0.313-1.082,0.421
			c-2.881,0.837-5.789,1.578-8.629,2.555c-1.368,0.471-1.388,0.475-1.203,1.925c0.086,0.68-0.104,1.591,0.446,1.962
			c0.483,0.326,1.27-0.109,1.919-0.217c1.922-0.32,3.839-0.68,5.777-0.893c0.895-0.098,1.278,0.053,1.385,0.504
			c0.116,0.486-0.238,0.836-1.157,1.014c-2.296,0.444-4.599,0.852-6.897,1.284c-1.072,0.202-1.207,0.433-0.996,1.465
			c0.068,0.338,0.233,0.463,0.555,0.448c0.233-0.011,0.468-0.007,0.701-0.021c1.675-0.106,3.35-0.15,5.027-0.127
			c0.719,0.01,1.14,0.294,1.183,0.838c0.043,0.53-0.312,0.849-1.073,0.984c-1.58,0.282-3.187,0.254-4.778,0.399
			c-1.522,0.139-1.455-0.205-1.393,1.501c0.035,0.975,0.105,1.952-0.225,2.898c-0.064,0.183-0.108,0.378-0.201,0.545
			c-0.252,0.449-0.652,0.677-1.163,0.612c-0.482-0.061-0.703-0.383-0.829-0.854c-0.306-1.14-0.408-2.295-0.443-3.469
			c-0.029-0.963-0.064-0.962-1.044-0.851c-3.178,0.36-6.336,0.844-9.479,1.437c-0.573,0.108-1.156,0.196-1.739,0.225
			c-0.887,0.045-1.192-0.245-1.284-1.115c-0.016-0.153,0.041-0.343-0.03-0.455c-0.727-1.127-0.132-2.03,0.664-2.652
			c3.284-2.569,6.525-5.223,10.463-6.792c0.217-0.087,0.426-0.196,0.644-0.279c0.317-0.121,0.359-0.327,0.298-0.647
			c-1.426-7.414-4.158-14.135-10.131-19.14c-3.085-2.585-6.679-3.97-10.651-4.386c-4.002-0.419-7.851,0.337-11.585,1.715
			c-4.9,1.808-9.174,4.632-12.956,8.214c-2.03,1.923-3.589,4.205-4.977,6.617c-0.289,0.502-0.258,0.794,0.249,1.129
			c1.043,0.688,2.002,1.489,2.879,2.385c0.576,0.588,1.098,1.22,1.528,1.919c0.663,1.075,0.299,1.832-0.941,1.92
			c-1.167,0.083-2.331,0.083-3.496-0.128c-1-0.182-2.023-0.073-3.036-0.1c-0.434-0.012-0.583,0.297-0.822,0.548
			c-0.453,0.473-0.937,0.575-1.316,0.127c-0.479-0.564-1.018-0.496-1.584-0.412c-1.619,0.24-3.234,0.504-4.848,0.782
			c-0.387,0.066-0.768,0.13-1.16,0.124c-0.448-0.008-0.749-0.243-0.875-0.647c-0.13-0.419,0.056-0.764,0.402-1.015
			c0.354-0.256,0.767-0.371,1.187-0.47c1.826-0.431,3.685-0.65,5.544-0.868c0.193-0.022,0.389-0.043,0.583-0.046
			c0.467-0.008,0.585-0.324,0.613-0.699c0.029-0.381-0.273-0.421-0.543-0.468c-1.805-0.317-3.607-0.645-5.415-0.938
			c-0.695-0.113-1.386-0.232-2.05-0.462c-0.716-0.248-1.003-0.623-0.903-1.161c0.115-0.626,0.583-0.76,1.13-0.792
			c1.648-0.093,3.269,0.196,4.893,0.389c1.044,0.124,2.074,0.354,3.111,0.531c0.229,0.039,0.466,0.089,0.692,0.066
			c0.298-0.029,0.428-0.422,0.199-0.616c-0.203-0.173-0.46-0.287-0.701-0.415c-1.827-0.972-3.733-1.763-5.681-2.462
			c-1.577-0.566-3.141-1.169-4.707-1.764c-0.325-0.124-0.678-0.219-0.916-0.497c-0.211-0.246-0.339-0.527-0.194-0.86
			c0.141-0.32,0.396-0.484,0.737-0.474c0.231,0.007,0.466,0.052,0.69,0.11c3.897,0.998,7.734,2.158,11.281,4.12
			c0.725,0.401,0.765,0.39,1.166-0.31c1.841-3.218,4.162-6.032,7.047-8.365c0.48-0.389,0.499-0.706,0.287-1.279
			c-0.797-2.149-1.75-4.25-2.002-6.577c-0.179-1.654,0.043-3.273,0.239-4.894c0.249-2.05,0.58-4.091,0.893-6.133
			c0.131-0.852,0.157-1.708,0.187-2.565c0.016-0.429,0.011-0.859,0.052-1.286c0.205-2.093,0.974-2.502,2.832-1.527
			c0.69,0.362,1.387,0.715,2.085,1.062c4.402,2.19,6.791,5.937,8.093,10.508C272.306,89.965,272.491,91.631,272.596,93.428z
			 M298.799,98.449c0.573,0.637,1.149,1.267,1.713,1.909c0.209,0.237,0.422,0.294,0.721,0.177c2.063-0.81,4.215-1.438,5.981-2.86
			c0.437-0.352,0.903-0.504,1.405-0.256c0.496,0.246,0.693,0.718,0.699,1.263c0.002,0.273,0.01,0.548-0.021,0.818
			c-0.242,2.121-0.855,4.117-2.034,5.916c-0.364,0.556-0.758,1.091-1.303,1.489c-0.938,0.685-0.944,0.686-0.496,1.686
			c0.091,0.203,0.1,0.471,0.464,0.612c1.607-0.804,2.969-1.952,3.928-3.584c1.079-1.835,1.855-3.791,2.264-5.865
			c0.533-2.714,0.953-5.451,1.416-8.179c0.029-0.175,0.096-0.382-0.11-0.505c-0.18-0.044-0.311,0.046-0.449,0.116
			c-2.682,1.354-5.44,2.532-8.268,3.546c-1.402,0.503-2.713,1.188-3.963,1.99C300.022,97.184,299.335,97.695,298.799,98.449z
			 M268.678,94.78c0.327,0.129,0.492-0.009,0.675-0.055c0.674-0.171,0.952-0.559,0.827-1.281c-0.111-0.65-0.093-1.322-0.179-1.979
			c-0.642-4.868-3.018-8.613-7.257-11.136c-0.207-0.123-0.41-0.387-0.77-0.161c-0.187,2.659-0.846,5.27-1.309,7.913
			c-0.642,3.667-0.029,7.113,1.742,10.408c0.535-0.313,1.085-0.591,1.562-1.063c-1.376-1.853-1.609-3.956-1.448-6.14
			c0.096-1.282,0.358-2.543,0.435-3.832c0.063-1.081,1.202-1.521,2.085-0.876c0.185,0.135,0.353,0.312,0.484,0.5
			c0.58,0.83,1.167,1.656,1.604,2.578C267.914,91.307,268.651,92.969,268.678,94.78z M297.591,124.896
			c2.046-0.587,4.09-1.161,6.162-1.63c1.886-0.426,1.881-0.446,1.569-2.386c-0.151-0.943-0.197-0.98-1.103-0.528
			C301.813,121.552,299.65,123.116,297.591,124.896z M304.02,105.391c1.098-1.6,1.885-3.115,2.179-5.045
			c-1.386,0.849-2.757,1.361-4.11,1.987C302.735,103.357,303.332,104.301,304.02,105.391z M264.767,90.309
			c-0.337,2.066-0.315,3.865,0.782,5.52c0.161,0.242,0.255,0.6,0.694,0.4c0.329-0.149,0.488-0.37,0.424-0.729
			c-0.171-0.954-0.162-1.942-0.495-2.864C265.883,91.837,265.476,91.104,264.767,90.309z M298.381,126.753
			c2.495-0.385,4.993-0.639,7.447-0.886c0.131-0.309,0.058-0.539,0.032-0.767c-0.017-0.15-0.017-0.313-0.24-0.477
			C303.197,125.149,300.733,125.757,298.381,126.753z"/>
		<path fill="#E86666" d="M276.882,127.092c-0.448-0.029-0.653,0.183-0.896,0.289c-1.694,0.738-3.21,0.191-3.976-1.488
			c-0.605-1.331-0.466-2.743-0.344-4.142c0.016-0.18,0.136-0.367,0.251-0.517c0.22-0.287,0.499-0.546,0.891-0.381
			c0.373,0.156,0.476,0.471,0.36,0.871c-0.34,1.173,0.159,2.137,0.817,3.038c0.511,0.698,0.85,0.756,1.599,0.365
			c0.392-0.204,0.669-0.526,0.913-0.886c0.263-0.388,0.397-0.749-0.048-1.122c-0.274-0.229-0.433-0.566-0.495-0.912
			c-0.245-1.36,0.129-2.41,1.706-2.613c0.664-0.086,1.324-0.051,1.944,0.244c1.356,0.644,1.665,2.38,0.451,3.246
			c-0.8,0.57-0.93,1.24-0.979,2.068c-0.046,0.782-0.099,1.561,0.212,2.303c0.305,0.725,0.64,0.805,1.224,0.284
			c0.587-0.523,1.003-1.189,1.444-1.832c0.197-0.288,0.391-0.586,0.63-0.837c0.193-0.203,0.459-0.289,0.747-0.136
			c0.277,0.147,0.448,0.424,0.335,0.673c-0.744,1.628-1.443,3.322-3.221,4.125c-0.878,0.397-1.863,0.047-2.619-0.782
			C277.346,128.42,277.11,127.76,276.882,127.092z"/>
		<path fill="#E86666" d="M273.506,113.676c-1.584-0.008-2.978-0.573-4.235-1.481c-0.456-0.329-0.733-0.384-1.155,0.09
			c-0.632,0.71-0.915,0.698-1.438-0.05c-0.239-0.342-0.708-0.247-0.828-0.56c-0.213-0.552-0.434-0.999-1.034-1.277
			c-0.474-0.219,0.074-0.842-0.178-1.148c-0.224-0.271-0.735-0.272-0.806-0.75c-0.075-0.515,0.201-0.817,0.638-0.984
			c0.58-0.222,1.173-0.414,1.764-0.609c0.221-0.073,0.493-0.06,0.671-0.186c1.042-0.743,1.835-0.247,2.569,0.494
			c0.985,0.994,1.834,2.111,2.861,3.077c0.959,0.901,1.903,1.121,3.059,0.487c0.408-0.224,0.851-0.384,1.274-0.58
			c0.396-0.182,0.763-0.15,1.071,0.168c0.314,0.324,0.281,0.709,0.122,1.088c-0.17,0.403-0.46,0.719-0.788,1.002
			C276.046,113.345,274.817,113.639,273.506,113.676z"/>
		<path fill="#E86666" d="M285.049,114.147c0.015-1.15,0.99-1.929,2.078-1.706c0.632,0.129,1.148,0.476,1.597,0.923
			c0.557,0.557,1.218,0.96,1.88,1.375c0.592,0.37,1.157,0.389,1.766,0.087c0.418-0.208,0.832-0.44,1.273-0.582
			c0.806-0.258,1.318,0.04,1.381,0.883c0.04,0.539,0.301,0.846,0.65,1.168c0.712,0.656,0.688,0.665-0.002,1.448
			c-0.593,0.673-1.236,1.257-2.164,1.356c-0.33,0.036-0.313,0.255-0.43,0.441c-0.398,0.632-0.877,0.783-1.301,0.216
			c-0.901-1.207-2.14-1.623-3.499-1.998c-1.197-0.33-2.073-1.202-2.751-2.245C285.245,115.079,285.101,114.6,285.049,114.147z"/>
	</g>
</g>
</svg>
