<?xml version="1.0" encoding="utf-8"?>
<!-- Generator: Adobe Illustrator 20.1.0, SVG Export Plug-In . SVG Version: 6.00 Build 0)  -->
<svg version="1.1" id="Calque_1" xmlns="http://www.w3.org/2000/svg" xmlns:xlink="http://www.w3.org/1999/xlink" x="0px" y="0px" width="300px" height="200px"
	 viewBox="0 0 432 432" style="enable-background:new 0 0 432 432;" xml:space="preserve">
<style type="text/css">
	.st0{fill:#EF7B7E;}
	.st1{fill:#FFFFFF;}
	.st2{fill-rule:evenodd;clip-rule:evenodd;}
	.st3{fill:#CC7B26;}
	.st4{fill:#020203;}
	.st5{fill:#CB9A3E;}
	.st6{fill:#E30613;}
	.st7{fill:#D60B52;}
	.st8{fill:#F39200;}
	.st9{fill:#E94E1B;}
	.st10{fill:#F0D3AF;}
	.st11{fill:#F7D1B3;}
	.st12{fill:#E2BBA2;}
	.st13{fill:#F18C75;}
	.st14{fill:#F1CCAB;}
	.st15{fill:#EB5763;}
	.st16{fill:#E71D73;}
	.st17{fill:#C29347;}
</style>
<g>
	<g>
		<path class="st15" d="M389.1,266.8c-4.1-16.7-24.1-36.1-43.8-39.8c2.4-21.8,0.4-45.5-1.1-61.2c-1.1-16.6-1.1-47.4-9.9-61.8
			c-9.9-18.8-13.2,5.5-23.2,16.6c-6.7-0.8-14.3-1.8-22.1-2.1c-7.7,0.3-15.4,1.3-22.1,2.1c-9.9-11-13.2-35.3-23.2-16.6
			c-8.8,14.3-8.8,45.2-9.9,61.8c-2.5,25.4-6.1,71.5,9.3,97.1c-2.8,1.6-5.4,4.4-6.7,6.7c-4.6,9.9,5,13.2,10.8,5.4
			c-4.1,6.6,2.9,14.1,5.4,6.2c-3.7,11.8,11.9,10.8,12.8-1.1c0.5,0.1,1,0.3,1.6,0.4c7.6,1.7,13.1,0.5,22.1,1.1
			c8.8-0.6,14.2,0.5,21.6-1c0.7,5.6,2.5,10.8,7.6,12c5.7,1.4,5-6.8,4.5-10.1c1,2.1,4.7,4,6.9,3.4c3.3-0.8,2.4-4.6,1.4-7
			c1.7,3.3,8.7,1.2,9.9-2.2c1-2.8-1.5-6.8-3.1-8.8c-1.1-1.3-2.4-2.5-4-3.3c3.2-4.9,5.7-10.7,7.6-17c11,4.6,21.2,10.2,25.9,22.9
			c7.9,20.3-12,33.1-25.2,43.4c-5,3.7-20.3,8.7-21.5,14.9c-2.5,11.2,26.9-0.8,31.4-2.9C375.5,316.5,396.2,295,389.1,266.8z
			 M300.9,152c0.3-1.5,0.8-2.9,1.4-4.3c1.2-2.7,2.7-5.5,5.1-7.2c1.8-1.3,4.4-1.9,6.4-0.7c1.8,1.1,2.7,3.2,3.4,5.1
			c0.8,2.4,1.3,4.9,1.5,7.4c0.1,1.1,0.2,2.2,0.2,3.3c0,0.5,0,1-0.1,1.4c0,0.5-0.3,0.9-0.7,1.2c-0.3,0.2-0.9,0.3-1.2,0.1
			c-0.4-0.3-0.7-0.6-0.8-1.1c-0.1-0.4-0.2-0.9-0.2-1.3c0-1-0.1-2-0.2-3c-0.2-2.3-0.3-4.6-0.8-6.8c-0.4-1.7-1-4.2-2.6-5.1
			c-0.7-0.4-1.1-0.5-1.9-0.2c-0.8,0.2-1.7,0.9-2.4,1.6c-1.8,1.9-3.1,4.3-4.1,6.7c-0.9,2.1-1.6,4.4-2.6,6.5c0,0.1-0.3,0.2-0.4,0
			C300.5,154.4,300.6,153.1,300.9,152z M281.8,177.9c0.1-0.2,0.6-0.2,0.8,0c0.5,0.6,0.5,1.6,0.6,2.4c0.1,0.9,0.2,1.8,0.5,2.6
			c0.3,0.7,0.7,1.4,1.5,1.6c0.6,0.1,1.2-0.4,1.5-0.8c1.3-1.4,2-3.5,2.3-5.4c0.2-1.3,0.3-2.7,0.4-4c0.1-0.7,0.1-1.5,0.3-2.3
			c0,0,0,0,0,0c-0.8,0-1.5-0.2-2.1-0.5c-0.9-0.6-1.3-1.5-1-2.5c0.3-1.3,1.4-1.7,2.5-1.9c0.1-0.1,0.3-0.1,0.4-0.2
			c1-0.4,2.4-0.4,3.2,0.4c0.7,0.6,1.1,1.9,0.7,2.8c-0.4,0.9-1.3,1.5-2.3,1.8c0,0.3,0,0.6,0.1,0.9c0,0.1,0,0.2,0,0.3
			c0,0.2,0,0.3,0.1,0.5c0.1,1.2,0.2,2.4,0.4,3.6c0.2,1.2,0.5,2.3,0.9,3.4c0.4,1,0.8,2.1,1.4,2.9c0.2,0.2,0.4,0.5,0.6,0.6
			c0,0,0.1,0,0.1,0c0.1,0,0.2,0,0.2-0.1c0.6-0.4,1.1-0.9,1.5-1.5c0.5-0.7,0.9-1.6,1.2-2.4c0.3-0.8,0.4-1.7,1-2.3
			c0.2-0.2,0.6-0.2,0.7,0c0.4,0.8-0.2,2-0.5,2.8c-0.4,0.9-0.8,1.8-1.4,2.7c-1,1.3-2.6,2.4-4.2,1.5c-1-0.5-1.7-1.5-2.1-2.5
			c-0.2-0.5-0.4-1.1-0.6-1.6c-0.6,1.7-1.4,3.6-3,4.5c-1.9,1.1-4.6,0.8-5.6-1.4c-0.4-1-0.6-2-0.6-3
			C281.3,179.9,281.2,178.7,281.8,177.9z M242,169.4c0.2-0.3,0.7-0.4,1.1-0.5c0.5-0.1,0.9-0.2,1.4-0.2c1-0.1,2-0.1,3-0.1
			c2.1,0.1,4.3,0.4,6.3,0.9c3.8,0.9,7.8,2.5,10.6,5.4c0.6,0.6-0.9,0.9-1.3,0.5c-2.8-2.6-6.6-4-10.3-4.8c-1.9-0.4-3.8-0.7-5.8-0.7
			c-0.9,0-1.8,0-2.7,0c-0.7,0-1.7,0.1-2.3-0.2C241.9,169.7,241.9,169.6,242,169.4z M243,182c0.3-0.8,0.9-1.3,1.5-1.8
			c0.7-0.6,1.5-1,2.3-1.4c1.7-0.8,3.5-1.3,5.3-1.6c3.6-0.6,7.4-0.4,10.9,0.9c1,0.4-0.1,1.1-0.8,0.9c-3-1-6.4-1.2-9.5-0.7
			c-1.7,0.3-3.3,0.7-4.9,1.4c-1.5,0.7-2.8,1.7-4.2,2.5C243.5,182.3,242.9,182.3,243,182z M264.8,183.7c-3.4-0.6-7,0.3-10.1,1.6
			c-1.7,0.7-3.3,1.6-4.8,2.5c-1.4,0.9-2.8,1.9-4.3,2.7c-0.2,0.1-1.1,0.1-0.9-0.4c0.8-1.5,2.5-2.6,3.9-3.5c1.7-1.1,3.5-2,5.3-2.7
			c3.6-1.4,7.6-2.2,11.4-1.3C266.2,183,265.4,183.8,264.8,183.7z M263.2,149.5c-1.4,2.6-2.3,5.7-2.1,8.7c0,0.4-0.8,0.4-0.9,0
			c-0.9-3.9,0.7-8.2,3-11.4c1.6-2.2,3.9-4.4,6.7-4.9c2.2-0.4,4.3,0.3,5.7,2c1.4,1.8,2.3,4,2.8,6.2c0.3,1.1,0.5,2.2,0.7,3.4
			c0.2,0.9,0.5,1.9,0,2.8c-0.2,0.4-1,0.5-1.3,0.2c-0.7-0.7-0.7-1.6-0.9-2.5c-0.2-1-0.3-1.9-0.6-2.9c-0.7-3.2-2.4-9.9-7.1-8
			C266.6,144.3,264.5,146.9,263.2,149.5z M293.6,256.7c-8.7-12-26.8-18.1-26.2-35.9c0.6-16.5,20.7-12,23.2,2.6
			c3.6-13.8,23.8-22.5,26.6-2.9C319.8,238.6,300.4,244.1,293.6,256.7z M333,187.7c-1.1-0.3-2-1.1-3-1.6c-0.9-0.5-1.9-1-2.9-1.5
			c-1.8-0.8-3.7-1.4-5.6-1.7c-4.1-0.7-8.4-0.7-12.5,0.3c-0.6,0.1-1-0.4-0.3-0.6c2.2-0.6,4.5-1.2,6.8-1.3c2.3-0.2,4.5-0.1,6.8,0.3
			c2.2,0.4,4.5,1,6.5,2c1,0.5,2.1,1,3,1.6c0.5,0.3,0.9,0.6,1.3,0.9c0.4,0.3,0.8,0.6,1,1.1C334.5,187.7,333.4,187.8,333,187.7z
			 M309.7,178c3.8-1.8,7.9-3.1,12-3.7c2.1-0.3,4.3-0.6,6.5-0.6c1.9,0,4.2-0.1,5.8,0.8c0.4,0.3-0.1,0.5-0.3,0.6
			c-1.9,0.3-3.9-0.1-5.9,0c-2,0.1-3.9,0.2-5.9,0.5c-4,0.6-7.9,1.5-11.6,3C309.9,178.7,309,178.3,309.7,178z M334.5,167.3
			c-0.9,0.5-1.9,0.7-2.9,0.9c-1,0.2-2.1,0.4-3.1,0.6c-2.2,0.4-4.4,0.9-6.6,1.4c-4.2,1.1-8.4,2.6-12,5c-0.3,0.2-1.3,0-0.8-0.4
			c3.4-2.9,7.6-4.6,11.9-5.8c2.2-0.6,4.5-1.1,6.7-1.6c1.1-0.2,2.2-0.4,3.3-0.6c1-0.1,2.1-0.3,3.1-0.1
			C334.5,166.7,334.9,167.1,334.5,167.3z"/>
		<path class="st17" d="M80.1,326c4.6,2.1,33.9,14.1,31.4,2.9c-1.2-6.2-16.6-11.2-21.5-14.9c-13.2-10.3-33.1-23.2-25.2-43.4
			c4.7-12.7,14.8-18.2,25.9-22.9c1.9,6.3,4.3,12.1,7.6,17c-1.6,0.9-2.9,2-4,3.3c-1.6,2-4.1,6-3.1,8.8c1.2,3.4,8.2,5.5,9.9,2.2
			c-1,2.4-1.8,6.3,1.4,7c2.3,0.5,5.9-1.4,6.9-3.4c-0.5,3.2-1.2,11.4,4.5,10.1c5-1.2,6.9-6.4,7.6-12c7.4,1.5,12.8,0.4,21.6,1
			c9-0.6,14.4,0.6,22.1-1.1c0.5-0.1,1-0.2,1.6-0.4c0.9,11.9,16.5,12.9,12.8,1.1c2.5,7.9,9.5,0.4,5.4-6.2c5.8,7.9,15.3,4.6,10.8-5.4
			c-1.3-2.3-3.9-5.2-6.7-6.7c15.4-25.7,11.8-71.7,9.3-97.1c-1.1-16.6-1.1-47.4-9.9-61.8c-9.9-18.8-13.2,5.5-23.2,16.6
			c-6.7-0.8-14.3-1.8-22.1-2.1c-7.7,0.3-15.4,1.3-22.1,2.1c-9.9-11-13.2-35.3-23.2-16.6c-8.8,14.3-8.8,45.2-9.9,61.8
			c-1.5,15.7-3.5,39.4-1.1,61.2c-19.7,3.6-39.7,23-43.8,39.8C35.8,295,56.5,316.5,80.1,326z M131.1,155.5c0,0.1-0.3,0.1-0.4,0
			c-1.1-2.1-1.8-4.3-2.6-6.5c-1-2.4-2.2-4.8-4.1-6.7c-0.7-0.7-1.6-1.4-2.4-1.6c-0.8-0.2-1.2-0.2-1.9,0.2c-1.6,1-2.2,3.4-2.6,5.1
			c-0.5,2.2-0.7,4.5-0.8,6.8c-0.1,1-0.1,2-0.2,3c0,0.4-0.1,0.9-0.2,1.3c-0.1,0.5-0.4,0.8-0.8,1.1c-0.3,0.2-0.9,0.2-1.2-0.1
			c-0.4-0.3-0.7-0.6-0.7-1.2c0-0.5-0.1-1-0.1-1.4c0.1-1.1,0.1-2.2,0.2-3.3c0.2-2.5,0.7-5,1.5-7.4c0.6-1.9,1.6-4,3.4-5.1
			c2-1.2,4.6-0.6,6.4,0.7c2.4,1.7,4,4.6,5.1,7.2c0.6,1.4,1,2.8,1.4,4.3C131.4,153.1,131.5,154.4,131.1,155.5z M150.7,180.7
			c-0.1,1-0.2,2.1-0.6,3c-0.9,2.2-3.7,2.5-5.6,1.4c-1.6-0.9-2.4-2.8-3-4.5c-0.2,0.5-0.4,1.1-0.6,1.6c-0.4,1-1.1,2-2.1,2.5
			c-1.7,0.8-3.2-0.2-4.2-1.5c-0.6-0.8-1-1.7-1.4-2.7c-0.3-0.8-0.9-2-0.5-2.8c0.1-0.2,0.5-0.2,0.7,0c0.6,0.6,0.7,1.6,1,2.3
			c0.3,0.8,0.7,1.7,1.2,2.4c0.4,0.6,0.9,1.2,1.5,1.5c0.1,0,0.2,0.1,0.2,0.1c0,0,0.1,0,0.1,0c0.3-0.1,0.5-0.4,0.6-0.6
			c0.7-0.9,1.1-1.9,1.4-2.9c0.4-1.1,0.7-2.3,0.9-3.4c0.2-1.2,0.3-2.4,0.4-3.6c0-0.2,0-0.3,0.1-0.5c0-0.1,0-0.2,0-0.3
			c0-0.3,0-0.6,0.1-0.9c-1-0.3-1.9-0.9-2.3-1.8c-0.4-0.9,0-2.1,0.7-2.8c0.8-0.8,2.2-0.7,3.2-0.4c0.1,0,0.3,0.1,0.4,0.2
			c1.1,0.1,2.2,0.6,2.5,1.9c0.3,1.1-0.1,2-1,2.5c-0.6,0.4-1.3,0.5-2.1,0.5c0,0,0,0,0,0c0.2,0.7,0.3,1.5,0.3,2.3
			c0.1,1.3,0.2,2.7,0.4,4c0.3,1.9,1,3.9,2.3,5.4c0.4,0.4,0.9,0.9,1.5,0.8c0.8-0.2,1.2-0.9,1.5-1.6c0.3-0.8,0.5-1.7,0.5-2.6
			c0.1-0.8,0.1-1.8,0.6-2.4c0.2-0.2,0.6-0.1,0.8,0C150.8,178.7,150.7,179.9,150.7,180.7z M189.9,169.8c-0.6,0.3-1.6,0.2-2.3,0.2
			c-0.9,0-1.8,0-2.7,0c-1.9,0-3.9,0.3-5.8,0.7c-3.7,0.8-7.5,2.2-10.3,4.8c-0.4,0.4-1.9,0-1.3-0.5c2.8-2.9,6.8-4.5,10.6-5.4
			c2.1-0.5,4.2-0.8,6.3-0.9c1,0,2,0,3,0.1c0.5,0,0.9,0.1,1.4,0.2c0.4,0.1,0.9,0.2,1.1,0.5C190.1,169.6,190.1,169.7,189.9,169.8z
			 M188.3,182.2c-1.4-0.8-2.7-1.8-4.2-2.5c-1.5-0.7-3.2-1.2-4.9-1.4c-3.1-0.5-6.5-0.3-9.5,0.7c-0.7,0.2-1.8-0.5-0.8-0.9
			c3.5-1.3,7.3-1.5,10.9-0.9c1.8,0.3,3.6,0.8,5.3,1.6c0.8,0.4,1.6,0.9,2.3,1.4c0.6,0.5,1.3,1,1.5,1.8
			C189.1,182.3,188.5,182.3,188.3,182.2z M166.7,182.8c3.9-1,7.8-0.2,11.4,1.3c1.9,0.7,3.7,1.6,5.3,2.7c1.4,0.9,3.1,1.9,3.9,3.5
			c0.2,0.4-0.7,0.5-0.9,0.4c-1.5-0.8-2.9-1.8-4.3-2.7c-1.5-1-3.2-1.8-4.8-2.5c-3.1-1.3-6.7-2.2-10.1-1.6
			C166.6,183.8,165.8,183,166.7,182.8z M162.7,143.2c-4.7-2-6.4,4.7-7.1,8c-0.2,1-0.4,1.9-0.6,2.9c-0.2,0.9-0.2,1.8-0.9,2.5
			c-0.3,0.3-1.1,0.2-1.3-0.2c-0.4-0.9-0.1-1.9,0-2.8c0.2-1.1,0.4-2.3,0.7-3.4c0.6-2.2,1.4-4.4,2.8-6.2c1.4-1.8,3.5-2.4,5.7-2
			c2.8,0.5,5.1,2.7,6.7,4.9c2.3,3.2,3.9,7.5,3,11.4c-0.1,0.4-0.9,0.3-0.9,0c0.2-3-0.7-6-2.1-8.7
			C167.5,146.9,165.4,144.3,162.7,143.2z M114.8,220.5c2.9-19.6,23-10.9,26.6,2.9c2.5-14.5,22.5-19,23.2-2.6
			c0.6,17.8-17.5,23.9-26.2,35.9C131.6,244.1,112.2,238.6,114.8,220.5z M97.8,187c0.2-0.4,0.6-0.8,1-1.1c0.4-0.3,0.9-0.6,1.3-0.9
			c1-0.6,2-1.1,3-1.6c2.1-0.9,4.3-1.6,6.5-2c2.2-0.4,4.5-0.5,6.8-0.3c2.3,0.2,4.6,0.8,6.8,1.3c0.7,0.2,0.2,0.8-0.3,0.6
			c-4-1-8.4-1-12.5-0.3c-1.9,0.3-3.8,1-5.6,1.7c-1,0.4-1.9,0.9-2.9,1.5c-0.9,0.5-1.9,1.3-3,1.6C98.6,187.8,97.5,187.7,97.8,187z
			 M121.7,178.5c-3.8-1.4-7.7-2.3-11.6-3c-1.9-0.3-3.9-0.4-5.9-0.5c-1.9-0.1-3.9,0.3-5.9,0c-0.3,0-0.8-0.3-0.3-0.6
			c1.7-1,4-0.8,5.8-0.8c2.2,0,4.3,0.3,6.5,0.6c4.1,0.7,8.2,2,12,3.7C123,178.3,122.1,178.7,121.7,178.5z M97.8,166.7
			c1-0.2,2.1,0,3.1,0.1c1.1,0.2,2.2,0.4,3.3,0.6c2.3,0.4,4.5,0.9,6.7,1.6c4.3,1.2,8.5,2.9,11.9,5.8c0.5,0.4-0.5,0.6-0.8,0.4
			c-3.6-2.4-7.9-3.9-12-5c-2.2-0.6-4.4-1-6.6-1.4c-1-0.2-2.1-0.4-3.1-0.6c-1-0.2-2-0.4-2.9-0.9C97.1,167.1,97.5,166.7,97.8,166.7z"
			/>
	</g>
	<g>
		<path d="M324,355.2c-0.5-1.7-3.9-0.9-5-0.7c-6.6,1.4-13.3,1.8-19.9,2.3c0.1-0.2,0.1-0.4,0.2-0.6c0.8-6.7,0.1-14-0.6-21
			c1.7-0.2,3.5-0.4,5.2-0.7c1.5-0.3,4.3-1.9,3.7-3.9c-0.6-2.1-3.6-1.8-5.2-1.5c-1.5,0.3-2.9,0.4-4.4,0.5c-0.1-0.9-0.2-1.7-0.2-2.5
			c-0.4-5.4-0.1-12.8-1.8-18.4c7.9-0.8,15.6-2.6,23.3-4.3c5.6-1.3,3.8-7.7-1.7-6.5c-9.6,2.1-19.1,4.2-28.9,4.4
			c-2.8,0-4.5,2.1-4.6,3.9c-0.1,0.2-0.2,0.5-0.2,0.7c0,9.7-0.3,19.4,0,29.1c0.2,8,0.1,18.2,4.9,25c0.5,0.7,1.8,0.8,3.3,0.5
			c0,0,0.1,0,0.1,0c9.3-1,18.6-1.4,27.8-3.3C321.1,358.1,324.4,356.9,324,355.2z"/>
		<path class="st17" d="M252.9,297c-1.9,15.5-1.3,31.3-2.3,46.9c0.1-2.1-1.5-5.4-2.1-7.4c-0.7-2.6-1.5-5.2-2.2-7.9
			c-1.5-5.1-3.1-10.1-5-15c-1.3-3.4-2.2-7.7-6.4-8.1c-2.6-0.3-6.5,0.4-8.4,2.4c-3.1,3.4,1.1,11.9,2.3,15.5c1,3.1,1.7,6.2,2.7,9.3
			c0.9,2.7,2.3,5.2,3.3,7.9c2.4,6.2,5,12.4,7.5,18.6c1.9,4.8,3.3,7.3,8.6,8.3c0.6,0.1,1.1,0,1.6-0.2c2-0.4,4-1.7,4.4-3.6
			c4.9-22.2,2.3-45,5.1-67.5C262.4,291.7,253.4,293,252.9,297z"/>
		<path class="st15" d="M191.1,298.9c-0.4-0.2-1-0.4-1.8-0.4c-12.1-1-15.4,12.4-16.8,21.8c-1.9,12.3-3.5,30.4,7.9,38.9
			c14.3,10.7,25.6-6.2,28.1-18.8C211.6,325.1,208,303.7,191.1,298.9z M196.9,350.2c-0.9,2-1.9,3.3-3,4.1c-0.2-0.2-0.3-0.4-0.5-0.6
			c-9.7-8.8-11.9-35.4-1.5-45.3c0.2-0.2,0.3-0.4,0.4-0.6c6.3,5.6,8.1,15.7,8.3,24C200.6,338.1,199.3,344.5,196.9,350.2z"/>
		<path d="M155.3,350.8c-5.3,0.7-10.8,1.9-16.2,1.8c0.4,0-0.3-25.3-0.3-27.6c-0.1-4.4-0.7-8.9-0.5-13.4c0.1-2,1-6.1-0.8-7.6
			c-1-0.8-3.7-0.6-5-0.8c-3.5-0.4-7-1.5-7.8,2.9c-0.9,5.3-1.1,10.9-1.4,16.2c-0.4,11.1,0,22.4,2.4,33.3c0.1,0.5,0.6,1,1.7,1.3
			c8.8,2.2,17.8,0.2,26.7-0.9c1.7-0.2,4.6-1.1,5-3.1C159.7,350.9,156.6,350.6,155.3,350.8z"/>
	</g>
	<path d="M187.5,75.3c0.8-5.3,4.9-10.2,10.2-10.8c4.2-0.4,8.3,1.9,11.1,5c2.8,3.2,3.8,7.1,5.4,11c1.6-3.9,2.6-7.8,5.4-11
		c2.8-3.2,6.9-5.5,11.1-5c5.3,0.6,9.4,5.5,10.2,10.8c0.8,5.3-1.2,10.6-4.1,15c-2.9,4.4-6.8,8.2-10.3,12.1
		c-4.2,4.7-8.7,9.8-12.2,15.1c-3.5-5.2-8-10.3-12.2-15.1c-3.5-4-7.4-7.7-10.3-12.1C188.7,85.9,186.7,80.5,187.5,75.3z"/>
</g>
</svg>
